<svg xmlns="http://www.w3.org/2000/svg" width="80" height="80" viewBox="0 0 80 80">
  <g fill="none" fill-rule="evenodd">
    <rect width="80" height="80" fill="none"/>
    <g fill="#FFFFFF" fill-rule="nonzero" transform="translate(4 9)">
      <path d="M-1,59 L-1,-1 L73,-1 L73,59 L-1,59 Z M1,57 L71,57 L71,1 L1,1 L1,57 Z"/>
      <polygon points="-1 13 67 13 67 11 -1 11"/>
      <polygon points="53 24 64 24 64 22 53 22"/>
      <polygon points="31.75 24 47 24 47 22 31.75 22"/>
      <polygon points="44 36 64 36 64 34 44 34"/>
      <polygon points="31.75 36 38 36 38 34 31.75 34"/>
      <polygon points="57 48 64 48 64 46 57 46"/>
      <polygon points="31.75 48 51 48 51 46 31.75 46"/>
      <path d="M5 49L5 29 11 29 11 49 5 49zM9 47L9 31 7 31 7 47 9 47zM19 49L19 21 25 21 25 49 19 49zM23 47L23 23 21 23 21 47 23 47zM12 49L12 35 18 35 18 49 12 49zM14 47L16 47 16 37 14 37 14 47z"/>
      <g transform="translate(4 4)">
        <path d="M48 19C48 17.8952847 47.1047153 17 46 17 44.8952847 17 44 17.8952847 44 19 44 20.1047153 44.8952847 21 46 21 47.1047153 21 48 20.1047153 48 19zM50 19C50 21.2092847 48.2092847 23 46 23 43.7907153 23 42 21.2092847 42 19 42 16.7907153 43.7907153 15 46 15 48.2092847 15 50 16.7907153 50 19zM39 31C39 29.8952847 38.1047153 29 37 29 35.8952847 29 35 29.8952847 35 31 35 32.1047153 35.8952847 33 37 33 38.1047153 33 39 32.1047153 39 31zM41 31C41 33.2092847 39.2092847 35 37 35 34.7907153 35 33 33.2092847 33 31 33 28.7907153 34.7907153 27 37 27 39.2092847 27 41 28.7907153 41 31zM52 43C52 41.8952847 51.1047153 41 50 41 48.8952847 41 48 41.8952847 48 43 48 44.1047153 48.8952847 45 50 45 51.1047153 45 52 44.1047153 52 43zM54 43C54 45.2092847 52.2092847 47 50 47 47.7907153 47 46 45.2092847 46 43 46 40.7907153 47.7907153 39 50 39 52.2092847 39 54 40.7907153 54 43zM3 2C3 1.44828475 2.55171525 1 2 1 1.44828475 1 1 1.44828475 1 2 1 2.55171525 1.44828475 3 2 3 2.55171525 3 3 2.55171525 3 2zM5 2C5 3.65628475 3.65628475 5 2 5 .34371525 5-1 3.65628475-1 2-1 .34371525.34371525-1 2-1 3.65628475-1 5 .34371525 5 2zM11 2C11 1.44828475 10.5517153 1 10 1 9.44828475 1 9 1.44828475 9 2 9 2.55171525 9.44828475 3 10 3 10.5517153 3 11 2.55171525 11 2zM13 2C13 3.65628475 11.6562847 5 10 5 8.34371525 5 7 3.65628475 7 2 7 .34371525 8.34371525-1 10-1 11.6562847-1 13 .34371525 13 2zM19 2C19 1.44828475 18.5517153 1 18 1 17.4482847 1 17 1.44828475 17 2 17 2.55171525 17.4482847 3 18 3 18.5517153 3 19 2.55171525 19 2zM21 2C21 3.65628475 19.6562847 5 18 5 16.3437153 5 15 3.65628475 15 2 15 .34371525 16.3437153-1 18-1 19.6562847-1 21 .34371525 21 2z"/>
      </g>
    </g>
  </g>
</svg>
