<svg xmlns="http://www.w3.org/2000/svg" width="40" height="40" viewBox="0 0 40 40">
  <g fill="none" fill-rule="evenodd">
    <circle cx="20" cy="20" r="20" fill="#007BB6"/>
    <polygon fill="#FFFFFF" points="14.902 29.425 10.376 29.425 10.376 15.807 14.902 15.807 14.902 29.425"/>
    <path fill="#FFFFFF" d="M12.6395127 13.9477924L12.6105898 13.9477924C11.0911415 13.9477924 10.1088463 12.9015052 10.1088463 11.5939174 10.1088463 10.258672 11.1210586 9.24166933 12.6693395 9.24166933 14.2176204 9.24166933 15.171083 10.258672 15.2004579 11.5939174 15.2004579 12.9015052 14.2176204 13.9477924 12.6395127 13.9477924L12.6395127 13.9477924zM26.69859 29.4246358L26.69859 22.1389484C26.69859 20.3089401 26.0436663 19.0601924 24.4052724 19.0601924 23.1548977 19.0601924 22.4101322 19.9020305 22.0830318 20.7151266 21.9633632 21.0065251 21.9339883 21.4125308 21.9339883 21.8195308L21.9339883 29.4249973 17.407549 29.4249973C17.407549 29.4249973 17.4672025 17.0847559 17.407549 15.8069045L21.9339883 15.8069045 21.9339883 17.7357931C22.5346815 16.8085419 23.6105244 15.4867637 26.013478 15.4867637 28.9917268 15.4867637 31.224487 17.4335484 31.224487 21.6164375L31.2243063 29.4246358 26.69859 29.4246358z"/>
  </g>
</svg>
