<svg xmlns="http://www.w3.org/2000/svg" width="80" height="80" viewBox="0 0 80 80">
  <g fill="none" fill-rule="evenodd">
    <rect width="80" height="80" fill="none"/>
    <g fill="#FFFFFF" fill-rule="nonzero" transform="translate(11 4.333)">
      <path d="M29.0004946,69.6412847 L10.4768331,59.3505357 C4.67208898,56.1258472 1.07191071,50.0074423 1.07191071,43.3657679 L1.07191071,7.49951786 L15.4635179,7.49951786 C18.2006288,7.49951786 20.8749973,6.69032244 23.1507181,5.17317529 L29.0004125,1.27288967 L34.8484945,5.1730789 C37.1266294,6.69068071 39.799367,7.49951786 42.5358393,7.49951786 L56.9290536,7.49951786 L56.9290536,47.2852321 L44.0719107,47.2852321 L44.0719107,49.2852321 L58.9290536,49.2852321 L58.9290536,5.49951786 L42.5358393,5.49951786 C40.1940039,5.49951786 37.9070544,4.80742982 35.9577473,3.50888002 L29.5553269,-0.761007473 L29.0005518,-1.13099682 L22.0412695,3.50910683 C20.0942388,4.80712729 17.8059071,5.49951786 15.4635179,5.49951786 L-0.928089286,5.49951786 L-0.928089286,43.3657679 C-0.928089286,50.7337922 3.06588962,57.5214505 9.50557298,61.0988645 L29.0004697,71.9291796 L49.1911639,60.712893 L48.2199288,58.9645503 L29.0004946,69.6412847 Z"/>
      <path d="M13.9285714,26.7857143 L23.5714286,26.7857143 L23.5714286,22.5714286 C23.5714286,19.5735347 26.0021062,17.1428571 29,17.1428571 C31.9978938,17.1428571 34.4285714,19.5735347 34.4285714,22.5714286 L34.4285714,25.7857143 L36.4285714,25.7857143 L36.4285714,22.5714286 C36.4285714,18.4689653 33.1024633,15.1428571 29,15.1428571 C24.8975367,15.1428571 21.5714286,18.4689653 21.5714286,22.5714286 L21.5714286,24.7857143 L11.9285714,24.7857143 L11.9285714,49.2857143 L40.25,49.2857143 L40.25,47.2857143 L13.9285714,47.2857143 L13.9285714,26.7857143 Z"/>
      <polygon points="44.071 48.286 46.071 48.286 46.071 24.786 27.393 24.786 27.393 26.786 44.071 26.786"/>
      <path d="M29,37.6428571 C30.222001,37.6428571 31.2142857,36.6505724 31.2142857,35.4285714 C31.2142857,34.2065705 30.222001,33.2142857 29,33.2142857 C27.777999,33.2142857 26.7857143,34.2065705 26.7857143,35.4285714 C26.7857143,36.6505724 27.777999,37.6428571 29,37.6428571 Z M29,39.6428571 C26.6734295,39.6428571 24.7857143,37.7551419 24.7857143,35.4285714 C24.7857143,33.102001 26.6734295,31.2142857 29,31.2142857 C31.3265705,31.2142857 33.2142857,33.102001 33.2142857,35.4285714 C33.2142857,37.7551419 31.3265705,39.6428571 29,39.6428571 Z"/>
      <polygon points="28 38.643 28 43.464 30 43.464 30 38.643"/>
    </g>
  </g>
</svg>
