<svg xmlns="http://www.w3.org/2000/svg" width="80" height="80" viewBox="0 0 80 80">
  <g fill="none" fill-rule="evenodd">
    <rect width="80" height="80" fill="none"/>
    <g fill="#FFFFFF" fill-rule="nonzero" transform="translate(7 6)">
      <polygon points="24 7 24 58 26 58 26 5 10 5 10 7"/>
      <polygon points="20 32 4 32 4 40 13.333 40 13.333 38 6 38 6 34 18 34 18 59 33 59 33 57 20 57"/>
      <polygon points="20 34 20 12 18 12 18 34"/>
      <polygon points="20 25 4 25 4 27 20 27"/>
      <g transform="translate(0 .799)">
        <path d="M-1 11.201L-1-.799 11-.799 11 11.201-1 11.201zM9 9.201L9 1.201 1 1.201 1 9.201 9 9.201zM47 11.201L47-.799 59-.799 59 11.201 47 11.201zM57 9.201L57 1.201 49 1.201 49 9.201 57 9.201zM-1 58.201L-1 46.201 11 46.201 11 58.201-1 58.201zM9 56.201L9 48.201 1 48.201 1 56.201 9 56.201z"/>
      </g>
      <polygon points="24 25 24 27 33 27 33 7 49 7 49 5 31 5 31 25"/>
      <polygon points="36 32 24 32 24 34 36 34"/>
      <polygon points="30 45 24 45 24 47 30 47"/>
      <polygon points="30 50.649 24 50.649 24 52.649 30 52.649"/>
      <polygon points="20 52 9 52 9 54 20 54"/>
      <polygon points="37 5 37 27 39 27 39 5"/>
      <g transform="translate(29 19.799)">
        <path d="M26.8610115,41.7141251 C20.215806,45.7787055 11.5645306,44.805717 5.97990678,39.2210932 C-0.66054378,32.5825315 -0.66054378,21.8198129 5.97985649,15.1803571 C12.6184297,8.54083946 23.3812259,8.54083946 30.0206932,15.1803068 C36.6601605,21.8197741 36.6601605,32.5825703 30.0207435,39.2210429 L29.3135864,39.9280994 L30.7276994,41.3424136 L31.4348565,40.6353571 C38.8554395,33.2158297 38.8554395,21.1866259 31.4349068,13.7660932 C24.0143741,6.34556054 11.9851703,6.34556054 4.56564292,13.7661435 C-2.85585622,21.1865871 -2.85585622,33.2158685 4.56579381,40.6354074 C10.8074245,46.877038 20.475415,47.9643741 27.9045885,43.4202749 L28.7576634,42.8984864 L27.7140864,41.1923366 L26.8610115,41.7141251 Z"/>
        <polygon points="37.799 45.586 30.728 38.515 29.314 39.929 36.385 47"/>
        <polygon points="18 20.319 21 21.819 21 25.622 23 25.622 23 20.583 18 18.083 13 20.583 13 25.622 15 25.622 15 21.819"/>
        <path d="M25,33.450834 L18,36.950834 L11,33.450834 L11,25.582766 L18,22.082766 L25,25.582766 L25,33.450834 Z M23,32.214766 L23,26.818834 L18,24.318834 L13,26.818834 L13,32.214766 L18,34.714766 L23,32.214766 Z"/>
        <polygon points="12.122 33.825 11.878 31.84 8 32.316 8 36.201 10 36.201 10 34.086"/>
        <polygon points="26 36.201 28 36.201 28 32.316 24.122 31.84 23.878 33.825 26 34.086"/>
        <polygon points="11 22.201 9 22.201 9 26.666 11.819 27.184 12.181 25.218 11 25"/>
        <polygon points="23.819 25.218 24.181 27.184 27 26.666 27 22.201 25 22.201 25 25"/>
        <polygon points="14 20.639 16 20.639 16 15.665 12.596 17.17 13.404 18.999 14 18.736"/>
        <polygon points="22.596 18.999 23.404 17.17 20 15.665 20 20.639 22 20.639 22 18.736"/>
        <polygon points="27 5.201 8 5.201 8 7.201 29 7.201 29 -.799 13 -.799 13 1.201 27 1.201"/>
      </g>
    </g>
  </g>
</svg>
