<?xml version="1.0" standalone="no"?>
<!DOCTYPE svg PUBLIC "-//W3C//DTD SVG 20010904//EN"
 "http://www.w3.org/TR/2001/REC-SVG-20010904/DTD/svg10.dtd">
<svg version="1.0" xmlns="http://www.w3.org/2000/svg"
 width="910.000000pt" height="248.000000pt" viewBox="0 0 910.000000 248.000000"
 preserveAspectRatio="xMidYMid meet">
<metadata>
Created by potrace 1.15, written by Peter Selinger 2001-2017
</metadata>
<g transform="translate(0.000000,248.000000) scale(0.100000,-0.100000)"
fill="#000000" stroke="none">
<path d="M3030 1244 l0 -1225 53 3 52 3 3 1223 2 1222 -55 0 -55 0 0 -1226z"/>
<path d="M3380 1885 l0 -585 80 0 80 0 0 265 0 265 126 0 125 0 22 -52 c11
-29 58 -125 102 -213 45 -88 91 -184 103 -212 l21 -53 85 0 c77 0 86 2 86 19
0 19 -106 252 -119 261 -4 3 -24 43 -45 90 -21 47 -51 109 -67 138 l-30 53 48
21 c118 52 162 105 183 220 14 76 -2 178 -39 238 -21 34 -42 53 -92 78 -88 45
-146 52 -426 52 l-243 0 0 -585z m547 428 c80 -43 112 -131 79 -216 -36 -94
-90 -116 -308 -124 l-158 -6 0 187 0 188 173 -4 c155 -3 176 -5 214 -25z"/>
<path d="M30 2448 c0 -8 48 -119 54 -125 3 -3 6 -12 6 -19 0 -7 26 -56 58
-109 55 -94 124 -175 190 -224 47 -34 208 -111 322 -154 64 -23 80 -28 230
-68 41 -11 100 -27 130 -35 30 -8 73 -19 95 -24 22 -5 51 -13 65 -18 14 -5 30
-10 35 -11 25 -4 67 -16 160 -43 55 -16 116 -33 135 -37 30 -6 74 -21 150 -49
22 -8 21 -8 73 -22 26 -7 50 -16 53 -21 3 -5 12 -9 19 -9 26 0 223 -91 252
-116 15 -13 33 -24 38 -24 15 -1 152 -103 205 -154 83 -80 93 -132 55 -296
-24 -107 -18 -248 15 -315 23 -48 124 -165 142 -165 5 0 18 -8 28 -18 32 -29
189 -108 260 -130 145 -44 170 -50 170 -40 0 17 -100 107 -145 130 -37 19
-101 59 -134 83 -7 6 -37 33 -67 62 -115 111 -110 187 25 358 32 41 74 105 92
142 32 65 34 73 34 178 0 100 -3 114 -27 158 -29 53 -116 150 -162 182 -63 43
-204 124 -226 130 -6 2 -27 10 -105 42 -52 21 -126 46 -175 58 -8 2 -15 4 -15
5 0 1 -227 61 -250 65 -50 10 -83 17 -115 25 -19 5 -53 12 -75 15 -22 3 -71
12 -110 20 -103 21 -226 45 -260 51 -16 2 -64 11 -105 19 -41 7 -106 19 -145
26 -38 6 -79 13 -90 15 -11 3 -33 7 -50 10 -16 3 -50 10 -75 15 -25 6 -56 13
-70 15 -14 3 -40 9 -58 15 -18 6 -39 12 -45 13 -13 3 -23 6 -77 25 -19 7 -43
14 -53 16 -37 8 -204 98 -247 133 -67 55 -120 112 -165 180 -15 23 -32 42 -36
42 -5 0 -9 -1 -9 -2z"/>
<path d="M4564 2120 c-68 -22 -130 -75 -158 -134 -28 -60 -23 -71 46 -96 70
-25 60 -30 111 49 33 53 81 76 152 76 36 -1 72 -7 91 -18 37 -19 64 -78 64
-137 l0 -40 -47 0 c-70 0 -241 -27 -294 -45 -147 -51 -220 -221 -155 -360 44
-95 102 -125 245 -125 103 0 145 12 209 60 l50 38 7 -44 6 -44 75 0 c71 0 75
1 69 20 -4 12 -10 161 -14 333 l-6 312 -36 60 c-52 88 -99 109 -244 112 -88 2
-122 -1 -171 -17z m306 -493 c0 -83 -13 -108 -88 -171 -69 -57 -137 -69 -208
-37 -65 30 -92 107 -59 171 31 60 161 107 303 109 l52 1 0 -73z"/>
<path d="M5560 2123 c-27 -10 -63 -36 -92 -65 l-48 -49 0 60 0 61 -70 0 c-64
0 -70 -2 -75 -22 -3 -13 -4 -198 -3 -413 l3 -390 75 0 75 0 5 282 5 282 49 50
c77 78 135 98 195 66 57 -29 61 -53 61 -384 l0 -301 68 0 c40 0 73 5 80 12 9
9 12 86 12 285 l0 273 41 45 c45 49 110 85 155 85 39 0 92 -34 104 -66 6 -14
10 -156 10 -330 l0 -304 80 0 81 0 -3 343 -3 342 -25 44 c-14 25 -42 58 -63
74 -32 27 -47 31 -114 35 -107 6 -175 -20 -238 -90 -37 -41 -48 -49 -56 -37
-5 8 -9 19 -9 25 0 22 -44 67 -84 85 -51 23 -153 24 -216 2z"/>
<path d="M6798 2119 c-42 -15 -69 -33 -98 -66 -55 -63 -96 -138 -109 -201 -15
-72 -14 -234 2 -303 17 -69 78 -165 131 -206 60 -46 107 -56 227 -51 142 7
194 35 262 140 52 82 67 123 77 206 12 105 -3 208 -40 283 -81 164 -149 212
-305 216 -70 2 -103 -2 -147 -18z m211 -129 c48 -24 97 -97 108 -159 14 -82 9
-222 -11 -279 -36 -106 -127 -166 -216 -142 -52 14 -90 48 -120 106 -23 46
-25 59 -25 194 0 133 2 149 24 194 46 93 152 132 240 86z"/>
<path d="M7802 2122 c-51 -19 -73 -33 -122 -82 l-25 -25 -3 58 -3 57 -74 0
-75 0 0 -415 0 -415 75 0 75 0 0 273 c1 194 4 278 13 294 18 32 101 101 141
118 73 31 133 15 171 -44 l25 -41 0 -300 0 -300 75 0 75 0 0 328 c0 188 -4
342 -10 363 -16 56 -51 102 -95 124 -57 28 -173 31 -243 7z"/>
<path d="M60 2060 c0 -17 111 -228 155 -295 139 -212 348 -363 625 -454 140
-45 272 -68 485 -81 329 -20 558 -39 620 -51 137 -27 292 -88 346 -135 8 -8
19 -14 22 -14 17 0 4 22 -37 62 -181 179 -371 280 -686 366 -78 22 -104 27
-442 92 -333 63 -499 112 -687 202 -123 59 -211 121 -315 224 -12 11 -32 37
-46 57 -25 36 -40 47 -40 27z"/>
<path d="M390 1369 c0 -19 108 -147 200 -238 130 -129 303 -232 470 -281 116
-34 326 -38 495 -10 260 43 495 37 651 -15 116 -39 112 -26 -16 63 -75 52
-202 116 -280 142 -137 45 -262 61 -550 70 -379 13 -544 38 -700 107 -76 33
-189 105 -224 142 -31 32 -46 39 -46 20z"/>
<path d="M3649 758 c0 -339 -4 -472 -13 -497 -7 -20 -30 -47 -55 -65 -40 -29
-49 -31 -127 -31 l-84 1 0 -57 c0 -78 13 -89 100 -89 143 0 236 42 297 134 49
74 53 124 53 619 l0 447 -85 0 -85 0 -1 -462z"/>
<path d="M4264 872 c-92 -32 -157 -102 -179 -192 -6 -24 -2 -27 48 -43 75 -24
84 -22 106 21 51 99 145 132 254 90 35 -14 57 -56 64 -123 l5 -52 -91 -7
c-101 -7 -200 -24 -216 -35 -5 -4 -31 -15 -56 -24 -50 -19 -104 -66 -115 -100
-4 -12 -12 -25 -18 -29 -6 -4 -13 -44 -14 -92 -5 -98 8 -132 69 -195 48 -49
96 -64 200 -63 79 0 129 15 170 50 13 11 35 29 49 40 l25 20 10 -46 10 -47 72
-3 71 -3 -4 253 c-7 378 -9 408 -32 453 -29 56 -90 110 -145 129 -66 22 -216
21 -283 -2z m296 -498 c0 -62 -4 -81 -23 -109 -48 -71 -143 -121 -212 -112
-59 9 -89 24 -108 57 -39 65 -11 155 60 190 49 24 161 48 236 49 l47 1 0 -76z"/>
<path d="M5280 873 c-25 -8 -73 -37 -107 -64 l-63 -49 0 60 0 60 -70 0 c-64 0
-70 -2 -75 -22 -3 -13 -4 -201 -3 -418 l3 -395 75 0 75 0 5 280 5 280 40 48
c68 82 168 117 235 82 60 -31 60 -31 60 -361 0 -166 3 -309 6 -318 5 -13 22
-16 80 -16 l74 0 0 338 c0 310 -2 340 -20 379 -25 57 -79 109 -126 122 -55 15
-141 13 -194 -6z"/>
<path d="M6000 875 c-68 -22 -144 -100 -160 -164 -12 -51 -7 -118 12 -156 21
-42 84 -96 133 -114 27 -10 93 -28 147 -40 77 -18 104 -29 135 -55 34 -30 38
-39 38 -81 0 -40 -5 -51 -32 -75 -57 -51 -185 -53 -243 -3 -17 14 -40 43 -51
64 -22 44 -27 45 -95 23 -64 -21 -78 -36 -70 -68 12 -50 117 -142 185 -163 56
-18 220 -20 279 -4 61 17 130 69 154 116 43 84 30 232 -25 283 -27 25 -127 68
-182 77 -22 4 -44 11 -50 15 -5 3 -38 15 -73 25 -75 22 -112 58 -112 111 0 86
131 130 232 78 17 -9 38 -34 51 -62 12 -26 23 -49 24 -51 1 -2 31 4 67 14 46
12 67 24 72 37 7 24 -31 103 -61 125 -65 50 -80 59 -113 70 -51 16 -207 15
-262 -2z"/>
<path d="M6790 870 c-121 -41 -174 -155 -138 -297 23 -92 86 -130 295 -178
130 -30 182 -90 148 -171 -11 -26 -26 -40 -61 -56 -99 -43 -228 -3 -262 83
-18 46 -28 47 -106 18 -70 -27 -72 -47 -17 -117 78 -98 139 -124 291 -124 99
0 184 17 200 40 3 5 19 18 35 29 17 12 44 47 59 77 24 48 28 65 24 120 -7 111
-59 168 -193 207 -38 11 -79 24 -90 29 -11 5 -45 16 -76 24 -164 46 -158 185
9 212 62 10 123 -22 158 -82 15 -27 29 -51 31 -53 5 -7 116 30 129 44 11 10 8
22 -12 64 -30 59 -92 114 -154 136 -61 22 -201 19 -270 -5z"/>
<path d="M7656 875 c-40 -15 -117 -72 -149 -109 -96 -114 -116 -392 -40 -553
63 -132 204 -206 362 -188 77 9 114 22 171 59 56 37 84 69 105 120 26 63 22
71 -49 90 -36 10 -69 15 -75 12 -5 -3 -12 -20 -16 -36 -9 -43 -63 -96 -110
-109 -145 -40 -252 43 -279 217 l-6 42 275 0 c244 0 276 2 282 16 10 27 -14
185 -38 249 -25 68 -99 148 -165 180 -52 25 -212 31 -268 10z m231 -141 c32
-24 68 -92 78 -146 l7 -38 -196 0 c-221 0 -209 -6 -176 83 21 56 58 99 100
116 42 18 155 8 187 -15z"/>
<path d="M8644 874 c-22 -8 -66 -37 -97 -65 l-57 -51 0 49 c0 27 -5 54 -12 61
-19 19 -134 16 -142 -4 -3 -9 -6 -190 -6 -404 0 -214 3 -395 6 -404 5 -13 22
-16 80 -16 l74 0 0 280 0 279 33 38 c66 77 106 102 175 109 62 7 107 -20 121
-73 7 -23 11 -158 11 -335 l0 -298 81 0 80 0 -3 348 c-3 336 -4 348 -25 387
-46 83 -106 115 -210 114 -37 0 -86 -7 -109 -15z"/>
<path d="M996 735 c13 -33 235 -165 304 -180 8 -2 31 -10 51 -19 126 -53 347
-66 484 -28 246 69 275 74 369 69 50 -2 101 -8 114 -12 43 -14 21 11 -40 47
-222 126 -400 149 -698 88 -228 -47 -392 -43 -510 13 -36 16 -68 32 -72 34 -4
2 -5 -3 -2 -12z"/>
<path d="M1980 413 c-36 -14 -100 -35 -142 -46 -70 -20 -82 -20 -140 -8 -35 8
-74 16 -87 19 -89 19 110 -85 228 -119 100 -29 245 -26 336 7 185 66 219 75
297 76 43 0 78 4 78 8 0 10 -122 54 -206 75 -39 9 -106 15 -180 14 -103 0
-128 -3 -184 -26z"/>
<path d="M2535 234 c-32 -5 -101 -27 -150 -49 -16 -8 -61 -21 -99 -31 -57 -14
-78 -15 -129 -6 -97 18 -92 3 18 -51 76 -37 181 -67 237 -67 71 0 166 42 233
103 25 24 110 67 130 67 23 0 18 17 -7 24 -31 8 -196 15 -233 10z"/>
</g>
</svg>
